<?xml version="1.0" encoding="utf-8"?>
<!-- Generator: Adobe Illustrator 18.0.0, SVG Export Plug-In . SVG Version: 6.00 Build 0)  -->
<!DOCTYPE svg PUBLIC "-//W3C//DTD SVG 1.1//EN" "http://www.w3.org/Graphics/SVG/1.1/DTD/svg11.dtd">
<svg version="1.1" id="Layer_1" xmlns="http://www.w3.org/2000/svg" xmlns:xlink="http://www.w3.org/1999/xlink" x="0px" y="0px"
	 viewBox="37 0 120 120" enable-background="new 37 0 120 120" xml:space="preserve">
<rect x="37" fill="#E42127" width="120" height="120"/>
<g>
	<path fill="#FFFFFF" d="M58,54c-4,0-6.6,3.3-6.6,7c0,4.2,3,7,7,7c2.1,0,4.3-0.9,5.5-2.4l-2-2.1c-0.6,0.7-1.9,1.5-3.4,1.5
		c-1.9,0-3.4-1.3-3.6-3.2h9.3c0.1-0.3,0.1-0.6,0.1-1C64.3,57.1,61.7,54,58,54z M55.1,59.3c0.2-1.2,1.4-2.3,2.9-2.3
		c1.5,0,2.6,1.2,2.7,2.3H55.1z"/>
	<path fill="#FFFFFF" d="M73.5,53.9c-1.5,0-2.8,0.5-3.8,1.4v-1.1h-3.5v13.5h3.6V59c0.5-0.7,1.7-1.7,3.3-1.7c0.9,0,1.5,0.3,2,0.7
		c0.5,0.5,0.8,1.2,0.8,2.5v7.1h3.6v-6.9c0-2.3-0.5-3.7-1.4-4.7C77.1,54.8,75.4,53.9,73.5,53.9z"/>
	<path fill="#FFFFFF" d="M111.2,55.4c-1.1-0.9-2.4-1.4-3.9-1.4c-3.7,0-6.6,3-6.6,7c0,1.9,0.6,3.5,1.7,4.7c1.2,1.4,3,2.3,5.1,2.3
		c1.3,0,2.6-0.4,3.7-1.4v1.1h3.5h0.1V54.3h-3.5L111.2,55.4L111.2,55.4z M111,63c-0.7,1-1.9,1.7-3.3,1.7c-2,0-3.6-1.5-3.6-3.7
		c0-1.9,1.3-3.7,3.5-3.7c1.4,0,2.6,0.6,3.4,1.7L111,63L111,63z"/>
	<path fill="#FFFFFF" d="M137.1,54.3v1.1c-1.1-0.9-2.4-1.4-3.9-1.4c-3.7,0-6.6,3-6.6,7c0,1.9,0.6,3.5,1.7,4.7c1.2,1.4,3,2.3,5.1,2.3
		c1.3,0,2.6-0.4,3.7-1.4v1.1h3.5h0.1V54.3L137.1,54.3L137.1,54.3z M136.9,63c-0.7,1-1.9,1.7-3.3,1.7c-2,0-3.6-1.5-3.6-3.7
		c0-1.9,1.3-3.7,3.5-3.7c1.4,0,2.6,0.6,3.4,1.7L136.9,63L136.9,63z"/>
	<path fill="#FFFFFF" d="M100.4,54.1C100,54,99.7,54,99.2,54c-1.6,0-3.1,0.6-3.9,1.7v-1.4h-3.5v13.5h3.6v-8.5
		c0.4-0.8,1.7-1.9,3.3-1.9c0.5,0,1.1,0.1,1.3,0.2l0.4,0.1L100.4,54.1L100.4,54.1L100.4,54.1z"/>
	<polygon fill="#FFFFFF" points="85.4,50.5 81.8,50.5 81.8,64.3 85.4,64.3 85.4,57.3 89.9,57.3 89.9,54.2 85.4,54.2 	"/>
	<rect x="85.4" y="64.3" fill="#FFFFFF" width="3.5" height="3.5"/>
	<path fill="#FFFFFF" d="M120.9,54.2v-3.7h-3.6c0,0,0,13.7,0,13.8h3.6v-7h4.4v-3L120.9,54.2L120.9,54.2L120.9,54.2z"/>
	<rect x="120.9" y="64.3" fill="#FFFFFF" width="3.5" height="3.5"/>
</g>
</svg>
